<?xml version="1.0" encoding="utf-8" standalone="no"?>
<!DOCTYPE svg PUBLIC "-//W3C//DTD SVG 1.1//EN"
  "http://www.w3.org/Graphics/SVG/1.1/DTD/svg11.dtd">
<svg xmlns:xlink="http://www.w3.org/1999/xlink" width="576pt" height="360pt" viewBox="0 0 576 360" xmlns="http://www.w3.org/2000/svg" version="1.1">
 <metadata>
  <rdf:RDF xmlns:dc="http://purl.org/dc/elements/1.1/" xmlns:cc="http://creativecommons.org/ns#" xmlns:rdf="http://www.w3.org/1999/02/22-rdf-syntax-ns#">
   <cc:Work>
    <dc:type rdf:resource="http://purl.org/dc/dcmitype/StillImage"/>
    <dc:date>2025-12-04T12:20:55.622898</dc:date>
    <dc:format>image/svg+xml</dc:format>
    <dc:creator>
     <cc:Agent>
      <dc:title>Matplotlib v3.10.8, https://matplotlib.org/</dc:title>
     </cc:Agent>
    </dc:creator>
   </cc:Work>
  </rdf:RDF>
 </metadata>
 <defs>
  <style type="text/css">*{stroke-linejoin: round; stroke-linecap: butt}</style>
 </defs>
 <g id="figure_1">
  <g id="patch_1">
   <path d="M 0 360 
L 576 360 
L 576 0 
L 0 0 
z
" style="fill: #ffffff"/>
  </g>
  <g id="axes_1">
   <g id="patch_2">
    <path d="M 47.81 318.04 
L 474.86776 318.04 
L 474.86776 25.44 
L 47.81 25.44 
z
" style="fill: #ffffff"/>
   </g>
   <g id="matplotlib.axis_1">
    <g id="xtick_1">
     <g id="line2d_1">
      <path d="M 67.221716 318.04 
L 67.221716 25.44 
" clip-path="url(#p1c1403cae7)" style="fill: none; stroke: #b0b0b0; stroke-width: 0.8; stroke-linecap: square"/>
     </g>
     <g id="line2d_2">
      <defs>
       <path id="mef8d1368b7" d="M 0 0 
L 0 3.5 
" style="stroke: #000000; stroke-width: 0.8"/>
      </defs>
      <g>
       <use xlink:href="#mef8d1368b7" x="67.221716" y="318.04" style="stroke: #000000; stroke-width: 0.8"/>
      </g>
     </g>
     <g id="text_1">
      <!-- 0 -->
      <g transform="translate(64.040466 332.638438) scale(0.1 -0.1)">
       <defs>
        <path id="DejaVuSans-30" d="M 2034 4250 
Q 1547 4250 1301 3770 
Q 1056 3291 1056 2328 
Q 1056 1369 1301 889 
Q 1547 409 2034 409 
Q 2525 409 2770 889 
Q 3016 1369 3016 2328 
Q 3016 3291 2770 3770 
Q 2525 4250 2034 4250 
z
M 2034 4750 
Q 2819 4750 3233 4129 
Q 3647 3509 3647 2328 
Q 3647 1150 3233 529 
Q 2819 -91 2034 -91 
Q 1250 -91 836 529 
Q 422 1150 422 2328 
Q 422 3509 836 4129 
Q 1250 4750 2034 4750 
z
" transform="scale(0.015625)"/>
       </defs>
       <use xlink:href="#DejaVuSans-30"/>
      </g>
     </g>
    </g>
    <g id="xtick_2">
     <g id="line2d_3">
      <path d="M 153.496011 318.04 
L 153.496011 25.44 
" clip-path="url(#p1c1403cae7)" style="fill: none; stroke: #b0b0b0; stroke-width: 0.8; stroke-linecap: square"/>
     </g>
     <g id="line2d_4">
      <g>
       <use xlink:href="#mef8d1368b7" x="153.496011" y="318.04" style="stroke: #000000; stroke-width: 0.8"/>
      </g>
     </g>
     <g id="text_2">
      <!-- 2 -->
      <g transform="translate(150.314761 332.638438) scale(0.1 -0.1)">
       <defs>
        <path id="DejaVuSans-32" d="M 1228 531 
L 3431 531 
L 3431 0 
L 469 0 
L 469 531 
Q 828 903 1448 1529 
Q 2069 2156 2228 2338 
Q 2531 2678 2651 2914 
Q 2772 3150 2772 3378 
Q 2772 3750 2511 3984 
Q 2250 4219 1831 4219 
Q 1534 4219 1204 4116 
Q 875 4013 500 3803 
L 500 4441 
Q 881 4594 1212 4672 
Q 1544 4750 1819 4750 
Q 2544 4750 2975 4387 
Q 3406 4025 3406 3419 
Q 3406 3131 3298 2873 
Q 3191 2616 2906 2266 
Q 2828 2175 2409 1742 
Q 1991 1309 1228 531 
z
" transform="scale(0.015625)"/>
       </defs>
       <use xlink:href="#DejaVuSans-32"/>
      </g>
     </g>
    </g>
    <g id="xtick_3">
     <g id="line2d_5">
      <path d="M 239.770306 318.04 
L 239.770306 25.44 
" clip-path="url(#p1c1403cae7)" style="fill: none; stroke: #b0b0b0; stroke-width: 0.8; stroke-linecap: square"/>
     </g>
     <g id="line2d_6">
      <g>
       <use xlink:href="#mef8d1368b7" x="239.770306" y="318.04" style="stroke: #000000; stroke-width: 0.8"/>
      </g>
     </g>
     <g id="text_3">
      <!-- 4 -->
      <g transform="translate(236.589056 332.638438) scale(0.1 -0.1)">
       <defs>
        <path id="DejaVuSans-34" d="M 2419 4116 
L 825 1625 
L 2419 1625 
L 2419 4116 
z
M 2253 4666 
L 3047 4666 
L 3047 1625 
L 3713 1625 
L 3713 1100 
L 3047 1100 
L 3047 0 
L 2419 0 
L 2419 1100 
L 313 1100 
L 313 1709 
L 2253 4666 
z
" transform="scale(0.015625)"/>
       </defs>
       <use xlink:href="#DejaVuSans-34"/>
      </g>
     </g>
    </g>
    <g id="xtick_4">
     <g id="line2d_7">
      <path d="M 326.044601 318.04 
L 326.044601 25.44 
" clip-path="url(#p1c1403cae7)" style="fill: none; stroke: #b0b0b0; stroke-width: 0.8; stroke-linecap: square"/>
     </g>
     <g id="line2d_8">
      <g>
       <use xlink:href="#mef8d1368b7" x="326.044601" y="318.04" style="stroke: #000000; stroke-width: 0.8"/>
      </g>
     </g>
     <g id="text_4">
      <!-- 6 -->
      <g transform="translate(322.863351 332.638438) scale(0.1 -0.1)">
       <defs>
        <path id="DejaVuSans-36" d="M 2113 2584 
Q 1688 2584 1439 2293 
Q 1191 2003 1191 1497 
Q 1191 994 1439 701 
Q 1688 409 2113 409 
Q 2538 409 2786 701 
Q 3034 994 3034 1497 
Q 3034 2003 2786 2293 
Q 2538 2584 2113 2584 
z
M 3366 4563 
L 3366 3988 
Q 3128 4100 2886 4159 
Q 2644 4219 2406 4219 
Q 1781 4219 1451 3797 
Q 1122 3375 1075 2522 
Q 1259 2794 1537 2939 
Q 1816 3084 2150 3084 
Q 2853 3084 3261 2657 
Q 3669 2231 3669 1497 
Q 3669 778 3244 343 
Q 2819 -91 2113 -91 
Q 1303 -91 875 529 
Q 447 1150 447 2328 
Q 447 3434 972 4092 
Q 1497 4750 2381 4750 
Q 2619 4750 2861 4703 
Q 3103 4656 3366 4563 
z
" transform="scale(0.015625)"/>
       </defs>
       <use xlink:href="#DejaVuSans-36"/>
      </g>
     </g>
    </g>
    <g id="xtick_5">
     <g id="line2d_9">
      <path d="M 412.318896 318.04 
L 412.318896 25.44 
" clip-path="url(#p1c1403cae7)" style="fill: none; stroke: #b0b0b0; stroke-width: 0.8; stroke-linecap: square"/>
     </g>
     <g id="line2d_10">
      <g>
       <use xlink:href="#mef8d1368b7" x="412.318896" y="318.04" style="stroke: #000000; stroke-width: 0.8"/>
      </g>
     </g>
     <g id="text_5">
      <!-- 8 -->
      <g transform="translate(409.137646 332.638438) scale(0.1 -0.1)">
       <defs>
        <path id="DejaVuSans-38" d="M 2034 2216 
Q 1584 2216 1326 1975 
Q 1069 1734 1069 1313 
Q 1069 891 1326 650 
Q 1584 409 2034 409 
Q 2484 409 2743 651 
Q 3003 894 3003 1313 
Q 3003 1734 2745 1975 
Q 2488 2216 2034 2216 
z
M 1403 2484 
Q 997 2584 770 2862 
Q 544 3141 544 3541 
Q 544 4100 942 4425 
Q 1341 4750 2034 4750 
Q 2731 4750 3128 4425 
Q 3525 4100 3525 3541 
Q 3525 3141 3298 2862 
Q 3072 2584 2669 2484 
Q 3125 2378 3379 2068 
Q 3634 1759 3634 1313 
Q 3634 634 3220 271 
Q 2806 -91 2034 -91 
Q 1263 -91 848 271 
Q 434 634 434 1313 
Q 434 1759 690 2068 
Q 947 2378 1403 2484 
z
M 1172 3481 
Q 1172 3119 1398 2916 
Q 1625 2713 2034 2713 
Q 2441 2713 2670 2916 
Q 2900 3119 2900 3481 
Q 2900 3844 2670 4047 
Q 2441 4250 2034 4250 
Q 1625 4250 1398 4047 
Q 1172 3844 1172 3481 
z
" transform="scale(0.015625)"/>
       </defs>
       <use xlink:href="#DejaVuSans-38"/>
      </g>
     </g>
    </g>
    <g id="text_6">
     <!-- Epoch -->
     <g transform="translate(246.027943 346.316563) scale(0.1 -0.1)">
      <defs>
       <path id="DejaVuSans-45" d="M 628 4666 
L 3578 4666 
L 3578 4134 
L 1259 4134 
L 1259 2753 
L 3481 2753 
L 3481 2222 
L 1259 2222 
L 1259 531 
L 3634 531 
L 3634 0 
L 628 0 
L 628 4666 
z
" transform="scale(0.015625)"/>
       <path id="DejaVuSans-70" d="M 1159 525 
L 1159 -1331 
L 581 -1331 
L 581 3500 
L 1159 3500 
L 1159 2969 
Q 1341 3281 1617 3432 
Q 1894 3584 2278 3584 
Q 2916 3584 3314 3078 
Q 3713 2572 3713 1747 
Q 3713 922 3314 415 
Q 2916 -91 2278 -91 
Q 1894 -91 1617 61 
Q 1341 213 1159 525 
z
M 3116 1747 
Q 3116 2381 2855 2742 
Q 2594 3103 2138 3103 
Q 1681 3103 1420 2742 
Q 1159 2381 1159 1747 
Q 1159 1113 1420 752 
Q 1681 391 2138 391 
Q 2594 391 2855 752 
Q 3116 1113 3116 1747 
z
" transform="scale(0.015625)"/>
       <path id="DejaVuSans-6f" d="M 1959 3097 
Q 1497 3097 1228 2736 
Q 959 2375 959 1747 
Q 959 1119 1226 758 
Q 1494 397 1959 397 
Q 2419 397 2687 759 
Q 2956 1122 2956 1747 
Q 2956 2369 2687 2733 
Q 2419 3097 1959 3097 
z
M 1959 3584 
Q 2709 3584 3137 3096 
Q 3566 2609 3566 1747 
Q 3566 888 3137 398 
Q 2709 -91 1959 -91 
Q 1206 -91 779 398 
Q 353 888 353 1747 
Q 353 2609 779 3096 
Q 1206 3584 1959 3584 
z
" transform="scale(0.015625)"/>
       <path id="DejaVuSans-63" d="M 3122 3366 
L 3122 2828 
Q 2878 2963 2633 3030 
Q 2388 3097 2138 3097 
Q 1578 3097 1268 2742 
Q 959 2388 959 1747 
Q 959 1106 1268 751 
Q 1578 397 2138 397 
Q 2388 397 2633 464 
Q 2878 531 3122 666 
L 3122 134 
Q 2881 22 2623 -34 
Q 2366 -91 2075 -91 
Q 1284 -91 818 406 
Q 353 903 353 1747 
Q 353 2603 823 3093 
Q 1294 3584 2113 3584 
Q 2378 3584 2631 3529 
Q 2884 3475 3122 3366 
z
" transform="scale(0.015625)"/>
       <path id="DejaVuSans-68" d="M 3513 2113 
L 3513 0 
L 2938 0 
L 2938 2094 
Q 2938 2591 2744 2837 
Q 2550 3084 2163 3084 
Q 1697 3084 1428 2787 
Q 1159 2491 1159 1978 
L 1159 0 
L 581 0 
L 581 4863 
L 1159 4863 
L 1159 2956 
Q 1366 3272 1645 3428 
Q 1925 3584 2291 3584 
Q 2894 3584 3203 3211 
Q 3513 2838 3513 2113 
z
" transform="scale(0.015625)"/>
      </defs>
      <use xlink:href="#DejaVuSans-45"/>
      <use xlink:href="#DejaVuSans-70" transform="translate(63.183594 0)"/>
      <use xlink:href="#DejaVuSans-6f" transform="translate(126.660156 0)"/>
      <use xlink:href="#DejaVuSans-63" transform="translate(187.841797 0)"/>
      <use xlink:href="#DejaVuSans-68" transform="translate(242.822266 0)"/>
     </g>
    </g>
   </g>
   <g id="matplotlib.axis_2">
    <g id="ytick_1">
     <g id="line2d_11">
      <path d="M 47.81 308.92785 
L 474.86776 308.92785 
" clip-path="url(#p1c1403cae7)" style="fill: none; stroke: #b0b0b0; stroke-width: 0.8; stroke-linecap: square"/>
     </g>
     <g id="line2d_12">
      <defs>
       <path id="m53f2ed55d7" d="M 0 0 
L -3.5 0 
" style="stroke: #000000; stroke-width: 0.8"/>
      </defs>
      <g>
       <use xlink:href="#m53f2ed55d7" x="47.81" y="308.92785" style="stroke: #000000; stroke-width: 0.8"/>
      </g>
     </g>
     <g id="text_7">
      <!-- 0.0 -->
      <g transform="translate(24.906875 312.727068) scale(0.1 -0.1)">
       <defs>
        <path id="DejaVuSans-2e" d="M 684 794 
L 1344 794 
L 1344 0 
L 684 0 
L 684 794 
z
" transform="scale(0.015625)"/>
       </defs>
       <use xlink:href="#DejaVuSans-30"/>
       <use xlink:href="#DejaVuSans-2e" transform="translate(63.623047 0)"/>
       <use xlink:href="#DejaVuSans-30" transform="translate(95.410156 0)"/>
      </g>
     </g>
    </g>
    <g id="ytick_2">
     <g id="line2d_13">
      <path d="M 47.81 250.706669 
L 474.86776 250.706669 
" clip-path="url(#p1c1403cae7)" style="fill: none; stroke: #b0b0b0; stroke-width: 0.8; stroke-linecap: square"/>
     </g>
     <g id="line2d_14">
      <g>
       <use xlink:href="#m53f2ed55d7" x="47.81" y="250.706669" style="stroke: #000000; stroke-width: 0.8"/>
      </g>
     </g>
     <g id="text_8">
      <!-- 0.5 -->
      <g transform="translate(24.906875 254.505887) scale(0.1 -0.1)">
       <defs>
        <path id="DejaVuSans-35" d="M 691 4666 
L 3169 4666 
L 3169 4134 
L 1269 4134 
L 1269 2991 
Q 1406 3038 1543 3061 
Q 1681 3084 1819 3084 
Q 2600 3084 3056 2656 
Q 3513 2228 3513 1497 
Q 3513 744 3044 326 
Q 2575 -91 1722 -91 
Q 1428 -91 1123 -41 
Q 819 9 494 109 
L 494 744 
Q 775 591 1075 516 
Q 1375 441 1709 441 
Q 2250 441 2565 725 
Q 2881 1009 2881 1497 
Q 2881 1984 2565 2268 
Q 2250 2553 1709 2553 
Q 1456 2553 1204 2497 
Q 953 2441 691 2322 
L 691 4666 
z
" transform="scale(0.015625)"/>
       </defs>
       <use xlink:href="#DejaVuSans-30"/>
       <use xlink:href="#DejaVuSans-2e" transform="translate(63.623047 0)"/>
       <use xlink:href="#DejaVuSans-35" transform="translate(95.410156 0)"/>
      </g>
     </g>
    </g>
    <g id="ytick_3">
     <g id="line2d_15">
      <path d="M 47.81 192.485488 
L 474.86776 192.485488 
" clip-path="url(#p1c1403cae7)" style="fill: none; stroke: #b0b0b0; stroke-width: 0.8; stroke-linecap: square"/>
     </g>
     <g id="line2d_16">
      <g>
       <use xlink:href="#m53f2ed55d7" x="47.81" y="192.485488" style="stroke: #000000; stroke-width: 0.8"/>
      </g>
     </g>
     <g id="text_9">
      <!-- 1.0 -->
      <g transform="translate(24.906875 196.284706) scale(0.1 -0.1)">
       <defs>
        <path id="DejaVuSans-31" d="M 794 531 
L 1825 531 
L 1825 4091 
L 703 3866 
L 703 4441 
L 1819 4666 
L 2450 4666 
L 2450 531 
L 3481 531 
L 3481 0 
L 794 0 
L 794 531 
z
" transform="scale(0.015625)"/>
       </defs>
       <use xlink:href="#DejaVuSans-31"/>
       <use xlink:href="#DejaVuSans-2e" transform="translate(63.623047 0)"/>
       <use xlink:href="#DejaVuSans-30" transform="translate(95.410156 0)"/>
      </g>
     </g>
    </g>
    <g id="ytick_4">
     <g id="line2d_17">
      <path d="M 47.81 134.264307 
L 474.86776 134.264307 
" clip-path="url(#p1c1403cae7)" style="fill: none; stroke: #b0b0b0; stroke-width: 0.8; stroke-linecap: square"/>
     </g>
     <g id="line2d_18">
      <g>
       <use xlink:href="#m53f2ed55d7" x="47.81" y="134.264307" style="stroke: #000000; stroke-width: 0.8"/>
      </g>
     </g>
     <g id="text_10">
      <!-- 1.5 -->
      <g transform="translate(24.906875 138.063525) scale(0.1 -0.1)">
       <use xlink:href="#DejaVuSans-31"/>
       <use xlink:href="#DejaVuSans-2e" transform="translate(63.623047 0)"/>
       <use xlink:href="#DejaVuSans-35" transform="translate(95.410156 0)"/>
      </g>
     </g>
    </g>
    <g id="ytick_5">
     <g id="line2d_19">
      <path d="M 47.81 76.043126 
L 474.86776 76.043126 
" clip-path="url(#p1c1403cae7)" style="fill: none; stroke: #b0b0b0; stroke-width: 0.8; stroke-linecap: square"/>
     </g>
     <g id="line2d_20">
      <g>
       <use xlink:href="#m53f2ed55d7" x="47.81" y="76.043126" style="stroke: #000000; stroke-width: 0.8"/>
      </g>
     </g>
     <g id="text_11">
      <!-- 2.0 -->
      <g transform="translate(24.906875 79.842344) scale(0.1 -0.1)">
       <use xlink:href="#DejaVuSans-32"/>
       <use xlink:href="#DejaVuSans-2e" transform="translate(63.623047 0)"/>
       <use xlink:href="#DejaVuSans-30" transform="translate(95.410156 0)"/>
      </g>
     </g>
    </g>
    <g id="text_12">
     <!-- Training Loss -->
     <g transform="translate(18.827188 204.022031) rotate(-90) scale(0.1 -0.1)">
      <defs>
       <path id="DejaVuSans-54" d="M -19 4666 
L 3928 4666 
L 3928 4134 
L 2272 4134 
L 2272 0 
L 1638 0 
L 1638 4134 
L -19 4134 
L -19 4666 
z
" transform="scale(0.015625)"/>
       <path id="DejaVuSans-72" d="M 2631 2963 
Q 2534 3019 2420 3045 
Q 2306 3072 2169 3072 
Q 1681 3072 1420 2755 
Q 1159 2438 1159 1844 
L 1159 0 
L 581 0 
L 581 3500 
L 1159 3500 
L 1159 2956 
Q 1341 3275 1631 3429 
Q 1922 3584 2338 3584 
Q 2397 3584 2469 3576 
Q 2541 3569 2628 3553 
L 2631 2963 
z
" transform="scale(0.015625)"/>
       <path id="DejaVuSans-61" d="M 2194 1759 
Q 1497 1759 1228 1600 
Q 959 1441 959 1056 
Q 959 750 1161 570 
Q 1363 391 1709 391 
Q 2188 391 2477 730 
Q 2766 1069 2766 1631 
L 2766 1759 
L 2194 1759 
z
M 3341 1997 
L 3341 0 
L 2766 0 
L 2766 531 
Q 2569 213 2275 61 
Q 1981 -91 1556 -91 
Q 1019 -91 701 211 
Q 384 513 384 1019 
Q 384 1609 779 1909 
Q 1175 2209 1959 2209 
L 2766 2209 
L 2766 2266 
Q 2766 2663 2505 2880 
Q 2244 3097 1772 3097 
Q 1472 3097 1187 3025 
Q 903 2953 641 2809 
L 641 3341 
Q 956 3463 1253 3523 
Q 1550 3584 1831 3584 
Q 2591 3584 2966 3190 
Q 3341 2797 3341 1997 
z
" transform="scale(0.015625)"/>
       <path id="DejaVuSans-69" d="M 603 3500 
L 1178 3500 
L 1178 0 
L 603 0 
L 603 3500 
z
M 603 4863 
L 1178 4863 
L 1178 4134 
L 603 4134 
L 603 4863 
z
" transform="scale(0.015625)"/>
       <path id="DejaVuSans-6e" d="M 3513 2113 
L 3513 0 
L 2938 0 
L 2938 2094 
Q 2938 2591 2744 2837 
Q 2550 3084 2163 3084 
Q 1697 3084 1428 2787 
Q 1159 2491 1159 1978 
L 1159 0 
L 581 0 
L 581 3500 
L 1159 3500 
L 1159 2956 
Q 1366 3272 1645 3428 
Q 1925 3584 2291 3584 
Q 2894 3584 3203 3211 
Q 3513 2838 3513 2113 
z
" transform="scale(0.015625)"/>
       <path id="DejaVuSans-67" d="M 2906 1791 
Q 2906 2416 2648 2759 
Q 2391 3103 1925 3103 
Q 1463 3103 1205 2759 
Q 947 2416 947 1791 
Q 947 1169 1205 825 
Q 1463 481 1925 481 
Q 2391 481 2648 825 
Q 2906 1169 2906 1791 
z
M 3481 434 
Q 3481 -459 3084 -895 
Q 2688 -1331 1869 -1331 
Q 1566 -1331 1297 -1286 
Q 1028 -1241 775 -1147 
L 775 -588 
Q 1028 -725 1275 -790 
Q 1522 -856 1778 -856 
Q 2344 -856 2625 -561 
Q 2906 -266 2906 331 
L 2906 616 
Q 2728 306 2450 153 
Q 2172 0 1784 0 
Q 1141 0 747 490 
Q 353 981 353 1791 
Q 353 2603 747 3093 
Q 1141 3584 1784 3584 
Q 2172 3584 2450 3431 
Q 2728 3278 2906 2969 
L 2906 3500 
L 3481 3500 
L 3481 434 
z
" transform="scale(0.015625)"/>
       <path id="DejaVuSans-20" transform="scale(0.015625)"/>
       <path id="DejaVuSans-4c" d="M 628 4666 
L 1259 4666 
L 1259 531 
L 3531 531 
L 3531 0 
L 628 0 
L 628 4666 
z
" transform="scale(0.015625)"/>
       <path id="DejaVuSans-73" d="M 2834 3397 
L 2834 2853 
Q 2591 2978 2328 3040 
Q 2066 3103 1784 3103 
Q 1356 3103 1142 2972 
Q 928 2841 928 2578 
Q 928 2378 1081 2264 
Q 1234 2150 1697 2047 
L 1894 2003 
Q 2506 1872 2764 1633 
Q 3022 1394 3022 966 
Q 3022 478 2636 193 
Q 2250 -91 1575 -91 
Q 1294 -91 989 -36 
Q 684 19 347 128 
L 347 722 
Q 666 556 975 473 
Q 1284 391 1588 391 
Q 1994 391 2212 530 
Q 2431 669 2431 922 
Q 2431 1156 2273 1281 
Q 2116 1406 1581 1522 
L 1381 1569 
Q 847 1681 609 1914 
Q 372 2147 372 2553 
Q 372 3047 722 3315 
Q 1072 3584 1716 3584 
Q 2034 3584 2315 3537 
Q 2597 3491 2834 3397 
z
" transform="scale(0.015625)"/>
      </defs>
      <use xlink:href="#DejaVuSans-54"/>
      <use xlink:href="#DejaVuSans-72" transform="translate(46.333984 0)"/>
      <use xlink:href="#DejaVuSans-61" transform="translate(87.447266 0)"/>
      <use xlink:href="#DejaVuSans-69" transform="translate(148.726562 0)"/>
      <use xlink:href="#DejaVuSans-6e" transform="translate(176.509766 0)"/>
      <use xlink:href="#DejaVuSans-69" transform="translate(239.888672 0)"/>
      <use xlink:href="#DejaVuSans-6e" transform="translate(267.671875 0)"/>
      <use xlink:href="#DejaVuSans-67" transform="translate(331.050781 0)"/>
      <use xlink:href="#DejaVuSans-20" transform="translate(394.527344 0)"/>
      <use xlink:href="#DejaVuSans-4c" transform="translate(426.314453 0)"/>
      <use xlink:href="#DejaVuSans-6f" transform="translate(480.277344 0)"/>
      <use xlink:href="#DejaVuSans-73" transform="translate(541.458984 0)"/>
      <use xlink:href="#DejaVuSans-73" transform="translate(593.558594 0)"/>
     </g>
    </g>
   </g>
   <g id="line2d_21">
    <path d="M 67.221716 78.889443 
L 110.358864 114.770342 
L 153.496011 144.591114 
L 196.633159 167.937342 
L 239.770306 185.571257 
L 282.907454 198.82263 
L 326.044601 208.916669 
L 369.181749 216.776762 
L 412.318896 223.038333 
L 455.456044 228.128728 
" clip-path="url(#p1c1403cae7)" style="fill: none; stroke-dasharray: 5.55,2.4; stroke-dashoffset: 0; stroke: #1f77b4; stroke-width: 1.5"/>
   </g>
   <g id="line2d_22">
    <path d="M 67.221716 231.04852 
L 110.358864 253.171637 
L 153.496011 261.01601 
L 196.633159 265.269183 
L 239.770306 268.061588 
L 282.907454 270.144392 
L 326.044601 271.793216 
L 369.181749 273.154078 
L 412.318896 274.339112 
L 455.456044 275.354373 
" clip-path="url(#p1c1403cae7)" style="fill: none; stroke-dasharray: 5.55,2.4; stroke-dashoffset: 0; stroke: #ff7f0e; stroke-width: 1.5"/>
   </g>
   <g id="line2d_23">
    <path d="M 67.221716 274.53718 
L 110.358864 281.668343 
L 153.496011 285.950045 
L 196.633159 288.822911 
L 239.770306 291.313846 
L 282.907454 292.91423 
L 326.044601 294.373369 
L 369.181749 294.898292 
L 412.318896 296.598234 
L 455.456044 297.489833 
" clip-path="url(#p1c1403cae7)" style="fill: none; stroke-dasharray: 5.55,2.4; stroke-dashoffset: 0; stroke: #2ca02c; stroke-width: 1.5"/>
   </g>
   <g id="line2d_24">
    <path d="M 67.221716 171.389625 
L 110.358864 219.964837 
L 153.496011 238.322441 
L 196.633159 247.680797 
L 239.770306 253.361787 
L 282.907454 257.226626 
L 326.044601 260.045812 
L 369.181749 262.222352 
L 412.318896 263.971317 
L 455.456044 265.415784 
" clip-path="url(#p1c1403cae7)" style="fill: none; stroke-dasharray: 5.55,2.4; stroke-dashoffset: 0; stroke: #d62728; stroke-width: 1.5"/>
   </g>
   <g id="line2d_25">
    <path d="M 67.221716 264.728891 
L 110.358864 272.774941 
L 153.496011 276.800703 
L 196.633159 279.641664 
L 239.770306 281.787231 
L 282.907454 283.744511 
L 326.044601 285.335579 
L 369.181749 286.67944 
L 412.318896 287.962402 
L 455.456044 289.023658 
" clip-path="url(#p1c1403cae7)" style="fill: none; stroke-dasharray: 5.55,2.4; stroke-dashoffset: 0; stroke: #9467bd; stroke-width: 1.5"/>
   </g>
   <g id="line2d_26">
    <path d="M 67.221716 287.133333 
L 110.358864 294.157019 
L 153.496011 297.982268 
L 196.633159 299.847674 
L 239.770306 300.896936 
L 282.907454 302.027126 
L 326.044601 303.105499 
L 369.181749 303.397536 
L 412.318896 304.235222 
L 455.456044 304.74 
" clip-path="url(#p1c1403cae7)" style="fill: none; stroke-dasharray: 5.55,2.4; stroke-dashoffset: 0; stroke: #8c564b; stroke-width: 1.5"/>
   </g>
   <g id="line2d_27">
    <path d="M 67.221716 47.832402 
L 110.358864 60.479207 
L 153.496011 71.461585 
L 196.633159 81.686621 
L 239.770306 91.49363 
L 282.907454 100.981936 
L 326.044601 110.140244 
L 369.181749 118.92582 
L 412.318896 127.291039 
L 455.456044 135.201085 
" clip-path="url(#p1c1403cae7)" style="fill: none; stroke-dasharray: 5.55,2.4; stroke-dashoffset: 0; stroke: #e377c2; stroke-width: 1.5"/>
   </g>
   <g id="line2d_28">
    <path d="M 67.221716 129.03488 
L 110.358864 184.248471 
L 153.496011 212.289422 
L 196.633159 227.672739 
L 239.770306 237.179327 
L 282.907454 243.602637 
L 326.044601 248.255324 
L 369.181749 251.788185 
L 412.318896 254.5665 
L 455.456044 256.816632 
" clip-path="url(#p1c1403cae7)" style="fill: none; stroke-dasharray: 5.55,2.4; stroke-dashoffset: 0; stroke: #7f7f7f; stroke-width: 1.5"/>
   </g>
   <g id="line2d_29">
    <path d="M 67.221716 256.840503 
L 110.358864 267.021175 
L 153.496011 272.06965 
L 196.633159 274.642677 
L 239.770306 276.88885 
L 282.907454 278.843102 
L 326.044601 280.540133 
L 369.181749 281.775005 
L 412.318896 283.088358 
L 455.456044 284.086152 
" clip-path="url(#p1c1403cae7)" style="fill: none; stroke-dasharray: 5.55,2.4; stroke-dashoffset: 0; stroke: #bcbd22; stroke-width: 1.5"/>
   </g>
   <g id="line2d_30">
    <path d="M 67.221716 53.856431 
L 110.358864 89.835025 
L 153.496011 121.113539 
L 196.633159 147.907043 
L 239.770306 169.362247 
L 282.907454 185.912899 
L 326.044601 198.600342 
L 369.181749 208.430755 
L 412.318896 216.174755 
L 455.456044 222.386838 
" clip-path="url(#p1c1403cae7)" style="fill: none; stroke: #17becf; stroke-width: 1.5; stroke-linecap: square"/>
   </g>
   <g id="line2d_31">
    <path d="M 67.221716 164.988672 
L 110.358864 241.581081 
L 153.496011 255.977083 
L 196.633159 262.152487 
L 239.770306 265.760337 
L 282.907454 268.231477 
L 326.044601 270.096651 
L 369.181749 271.6026 
L 412.318896 272.873335 
L 455.456044 273.979421 
" clip-path="url(#p1c1403cae7)" style="fill: none; stroke: #1f77b4; stroke-width: 1.5; stroke-linecap: square"/>
   </g>
   <g id="line2d_32">
    <path d="M 67.221716 253.314162 
L 110.358864 277.51205 
L 153.496011 282.824732 
L 196.633159 286.421171 
L 239.770306 289.078153 
L 282.907454 291.129402 
L 326.044601 292.771588 
L 369.181749 294.113703 
L 412.318896 295.239351 
L 455.456044 296.199186 
" clip-path="url(#p1c1403cae7)" style="fill: none; stroke: #ff7f0e; stroke-width: 1.5; stroke-linecap: square"/>
   </g>
   <g id="line2d_33">
    <path d="M 67.221716 111.915175 
L 110.358864 197.335545 
L 153.496011 227.911679 
L 196.633159 241.455439 
L 239.770306 249.06914 
L 282.907454 253.999193 
L 326.044601 257.487107 
L 369.181749 260.109389 
L 412.318896 262.171234 
L 455.456044 263.848586 
" clip-path="url(#p1c1403cae7)" style="fill: none; stroke: #2ca02c; stroke-width: 1.5; stroke-linecap: square"/>
   </g>
   <g id="line2d_34">
    <path d="M 67.221716 230.901919 
L 110.358864 268.985558 
L 153.496011 274.590394 
L 196.633159 277.988182 
L 239.770306 280.527674 
L 282.907454 282.575196 
L 326.044601 284.295283 
L 369.181749 285.77643 
L 412.318896 287.071385 
L 455.456044 288.214384 
" clip-path="url(#p1c1403cae7)" style="fill: none; stroke: #d62728; stroke-width: 1.5; stroke-linecap: square"/>
   </g>
   <g id="line2d_35">
    <path d="M 67.221716 272.610641 
L 110.358864 290.574437 
L 153.496011 295.29699 
L 196.633159 297.872579 
L 239.770306 299.57485 
L 282.907454 300.829633 
L 326.044601 301.811591 
L 369.181749 302.614461 
L 412.318896 303.30869 
L 455.456044 303.901848 
" clip-path="url(#p1c1403cae7)" style="fill: none; stroke: #9467bd; stroke-width: 1.5; stroke-linecap: square"/>
   </g>
   <g id="line2d_36">
    <path d="M 67.221716 38.74 
L 110.358864 50.839409 
L 153.496011 60.717331 
L 196.633159 69.704586 
L 239.770306 78.347753 
L 282.907454 86.852587 
L 326.044601 95.268575 
L 369.181749 103.568703 
L 412.318896 111.698476 
L 455.456044 119.58698 
" clip-path="url(#p1c1403cae7)" style="fill: none; stroke: #8c564b; stroke-width: 1.5; stroke-linecap: square"/>
   </g>
   <g id="line2d_37">
    <path d="M 67.221716 79.664017 
L 110.358864 155.043213 
L 153.496011 197.179861 
L 196.633159 218.989632 
L 239.770306 231.495775 
L 282.907454 239.534723 
L 326.044601 245.149108 
L 369.181749 249.305052 
L 412.318896 252.51595 
L 455.456044 255.080244 
" clip-path="url(#p1c1403cae7)" style="fill: none; stroke: #e377c2; stroke-width: 1.5; stroke-linecap: square"/>
   </g>
   <g id="line2d_38">
    <path d="M 67.221716 210.381864 
L 110.358864 262.39492 
L 153.496011 269.46693 
L 196.633159 273.139755 
L 239.770306 275.685651 
L 282.907454 277.674137 
L 326.044601 279.331462 
L 369.181749 280.769292 
L 412.318896 282.040726 
L 455.456044 283.181745 
" clip-path="url(#p1c1403cae7)" style="fill: none; stroke: #7f7f7f; stroke-width: 1.5; stroke-linecap: square"/>
   </g>
   <g id="patch_3">
    <path d="M 47.81 318.04 
L 47.81 25.44 
" style="fill: none; stroke: #000000; stroke-width: 0.8; stroke-linejoin: miter; stroke-linecap: square"/>
   </g>
   <g id="patch_4">
    <path d="M 474.86776 318.04 
L 474.86776 25.44 
" style="fill: none; stroke: #000000; stroke-width: 0.8; stroke-linejoin: miter; stroke-linecap: square"/>
   </g>
   <g id="patch_5">
    <path d="M 47.81 318.04 
L 474.86776 318.04 
" style="fill: none; stroke: #000000; stroke-width: 0.8; stroke-linejoin: miter; stroke-linecap: square"/>
   </g>
   <g id="patch_6">
    <path d="M 47.81 25.44 
L 474.86776 25.44 
" style="fill: none; stroke: #000000; stroke-width: 0.8; stroke-linejoin: miter; stroke-linecap: square"/>
   </g>
   <g id="text_13">
    <!-- Training Loss Curves (Representative Hyperparameters) -->
    <g transform="translate(93.202943 19.44) scale(0.12 -0.12)">
     <defs>
      <path id="DejaVuSans-43" d="M 4122 4306 
L 4122 3641 
Q 3803 3938 3442 4084 
Q 3081 4231 2675 4231 
Q 1875 4231 1450 3742 
Q 1025 3253 1025 2328 
Q 1025 1406 1450 917 
Q 1875 428 2675 428 
Q 3081 428 3442 575 
Q 3803 722 4122 1019 
L 4122 359 
Q 3791 134 3420 21 
Q 3050 -91 2638 -91 
Q 1578 -91 968 557 
Q 359 1206 359 2328 
Q 359 3453 968 4101 
Q 1578 4750 2638 4750 
Q 3056 4750 3426 4639 
Q 3797 4528 4122 4306 
z
" transform="scale(0.015625)"/>
      <path id="DejaVuSans-75" d="M 544 1381 
L 544 3500 
L 1119 3500 
L 1119 1403 
Q 1119 906 1312 657 
Q 1506 409 1894 409 
Q 2359 409 2629 706 
Q 2900 1003 2900 1516 
L 2900 3500 
L 3475 3500 
L 3475 0 
L 2900 0 
L 2900 538 
Q 2691 219 2414 64 
Q 2138 -91 1772 -91 
Q 1169 -91 856 284 
Q 544 659 544 1381 
z
M 1991 3584 
L 1991 3584 
z
" transform="scale(0.015625)"/>
      <path id="DejaVuSans-76" d="M 191 3500 
L 800 3500 
L 1894 563 
L 2988 3500 
L 3597 3500 
L 2284 0 
L 1503 0 
L 191 3500 
z
" transform="scale(0.015625)"/>
      <path id="DejaVuSans-65" d="M 3597 1894 
L 3597 1613 
L 953 1613 
Q 991 1019 1311 708 
Q 1631 397 2203 397 
Q 2534 397 2845 478 
Q 3156 559 3463 722 
L 3463 178 
Q 3153 47 2828 -22 
Q 2503 -91 2169 -91 
Q 1331 -91 842 396 
Q 353 884 353 1716 
Q 353 2575 817 3079 
Q 1281 3584 2069 3584 
Q 2775 3584 3186 3129 
Q 3597 2675 3597 1894 
z
M 3022 2063 
Q 3016 2534 2758 2815 
Q 2500 3097 2075 3097 
Q 1594 3097 1305 2825 
Q 1016 2553 972 2059 
L 3022 2063 
z
" transform="scale(0.015625)"/>
      <path id="DejaVuSans-28" d="M 1984 4856 
Q 1566 4138 1362 3434 
Q 1159 2731 1159 2009 
Q 1159 1288 1364 580 
Q 1569 -128 1984 -844 
L 1484 -844 
Q 1016 -109 783 600 
Q 550 1309 550 2009 
Q 550 2706 781 3412 
Q 1013 4119 1484 4856 
L 1984 4856 
z
" transform="scale(0.015625)"/>
      <path id="DejaVuSans-52" d="M 2841 2188 
Q 3044 2119 3236 1894 
Q 3428 1669 3622 1275 
L 4263 0 
L 3584 0 
L 2988 1197 
Q 2756 1666 2539 1819 
Q 2322 1972 1947 1972 
L 1259 1972 
L 1259 0 
L 628 0 
L 628 4666 
L 2053 4666 
Q 2853 4666 3247 4331 
Q 3641 3997 3641 3322 
Q 3641 2881 3436 2590 
Q 3231 2300 2841 2188 
z
M 1259 4147 
L 1259 2491 
L 2053 2491 
Q 2509 2491 2742 2702 
Q 2975 2913 2975 3322 
Q 2975 3731 2742 3939 
Q 2509 4147 2053 4147 
L 1259 4147 
z
" transform="scale(0.015625)"/>
      <path id="DejaVuSans-74" d="M 1172 4494 
L 1172 3500 
L 2356 3500 
L 2356 3053 
L 1172 3053 
L 1172 1153 
Q 1172 725 1289 603 
Q 1406 481 1766 481 
L 2356 481 
L 2356 0 
L 1766 0 
Q 1100 0 847 248 
Q 594 497 594 1153 
L 594 3053 
L 172 3053 
L 172 3500 
L 594 3500 
L 594 4494 
L 1172 4494 
z
" transform="scale(0.015625)"/>
      <path id="DejaVuSans-48" d="M 628 4666 
L 1259 4666 
L 1259 2753 
L 3553 2753 
L 3553 4666 
L 4184 4666 
L 4184 0 
L 3553 0 
L 3553 2222 
L 1259 2222 
L 1259 0 
L 628 0 
L 628 4666 
z
" transform="scale(0.015625)"/>
      <path id="DejaVuSans-79" d="M 2059 -325 
Q 1816 -950 1584 -1140 
Q 1353 -1331 966 -1331 
L 506 -1331 
L 506 -850 
L 844 -850 
Q 1081 -850 1212 -737 
Q 1344 -625 1503 -206 
L 1606 56 
L 191 3500 
L 800 3500 
L 1894 763 
L 2988 3500 
L 3597 3500 
L 2059 -325 
z
" transform="scale(0.015625)"/>
      <path id="DejaVuSans-6d" d="M 3328 2828 
Q 3544 3216 3844 3400 
Q 4144 3584 4550 3584 
Q 5097 3584 5394 3201 
Q 5691 2819 5691 2113 
L 5691 0 
L 5113 0 
L 5113 2094 
Q 5113 2597 4934 2840 
Q 4756 3084 4391 3084 
Q 3944 3084 3684 2787 
Q 3425 2491 3425 1978 
L 3425 0 
L 2847 0 
L 2847 2094 
Q 2847 2600 2669 2842 
Q 2491 3084 2119 3084 
Q 1678 3084 1418 2786 
Q 1159 2488 1159 1978 
L 1159 0 
L 581 0 
L 581 3500 
L 1159 3500 
L 1159 2956 
Q 1356 3278 1631 3431 
Q 1906 3584 2284 3584 
Q 2666 3584 2933 3390 
Q 3200 3197 3328 2828 
z
" transform="scale(0.015625)"/>
      <path id="DejaVuSans-29" d="M 513 4856 
L 1013 4856 
Q 1481 4119 1714 3412 
Q 1947 2706 1947 2009 
Q 1947 1309 1714 600 
Q 1481 -109 1013 -844 
L 513 -844 
Q 928 -128 1133 580 
Q 1338 1288 1338 2009 
Q 1338 2731 1133 3434 
Q 928 4138 513 4856 
z
" transform="scale(0.015625)"/>
     </defs>
     <use xlink:href="#DejaVuSans-54"/>
     <use xlink:href="#DejaVuSans-72" transform="translate(46.333984 0)"/>
     <use xlink:href="#DejaVuSans-61" transform="translate(87.447266 0)"/>
     <use xlink:href="#DejaVuSans-69" transform="translate(148.726562 0)"/>
     <use xlink:href="#DejaVuSans-6e" transform="translate(176.509766 0)"/>
     <use xlink:href="#DejaVuSans-69" transform="translate(239.888672 0)"/>
     <use xlink:href="#DejaVuSans-6e" transform="translate(267.671875 0)"/>
     <use xlink:href="#DejaVuSans-67" transform="translate(331.050781 0)"/>
     <use xlink:href="#DejaVuSans-20" transform="translate(394.527344 0)"/>
     <use xlink:href="#DejaVuSans-4c" transform="translate(426.314453 0)"/>
     <use xlink:href="#DejaVuSans-6f" transform="translate(480.277344 0)"/>
     <use xlink:href="#DejaVuSans-73" transform="translate(541.458984 0)"/>
     <use xlink:href="#DejaVuSans-73" transform="translate(593.558594 0)"/>
     <use xlink:href="#DejaVuSans-20" transform="translate(645.658203 0)"/>
     <use xlink:href="#DejaVuSans-43" transform="translate(677.445312 0)"/>
     <use xlink:href="#DejaVuSans-75" transform="translate(747.269531 0)"/>
     <use xlink:href="#DejaVuSans-72" transform="translate(810.648438 0)"/>
     <use xlink:href="#DejaVuSans-76" transform="translate(851.761719 0)"/>
     <use xlink:href="#DejaVuSans-65" transform="translate(910.941406 0)"/>
     <use xlink:href="#DejaVuSans-73" transform="translate(972.464844 0)"/>
     <use xlink:href="#DejaVuSans-20" transform="translate(1024.564453 0)"/>
     <use xlink:href="#DejaVuSans-28" transform="translate(1056.351562 0)"/>
     <use xlink:href="#DejaVuSans-52" transform="translate(1095.365234 0)"/>
     <use xlink:href="#DejaVuSans-65" transform="translate(1160.347656 0)"/>
     <use xlink:href="#DejaVuSans-70" transform="translate(1221.871094 0)"/>
     <use xlink:href="#DejaVuSans-72" transform="translate(1285.347656 0)"/>
     <use xlink:href="#DejaVuSans-65" transform="translate(1324.210938 0)"/>
     <use xlink:href="#DejaVuSans-73" transform="translate(1385.734375 0)"/>
     <use xlink:href="#DejaVuSans-65" transform="translate(1437.833984 0)"/>
     <use xlink:href="#DejaVuSans-6e" transform="translate(1499.357422 0)"/>
     <use xlink:href="#DejaVuSans-74" transform="translate(1562.736328 0)"/>
     <use xlink:href="#DejaVuSans-61" transform="translate(1601.945312 0)"/>
     <use xlink:href="#DejaVuSans-74" transform="translate(1663.224609 0)"/>
     <use xlink:href="#DejaVuSans-69" transform="translate(1702.433594 0)"/>
     <use xlink:href="#DejaVuSans-76" transform="translate(1730.216797 0)"/>
     <use xlink:href="#DejaVuSans-65" transform="translate(1789.396484 0)"/>
     <use xlink:href="#DejaVuSans-20" transform="translate(1850.919922 0)"/>
     <use xlink:href="#DejaVuSans-48" transform="translate(1882.707031 0)"/>
     <use xlink:href="#DejaVuSans-79" transform="translate(1957.902344 0)"/>
     <use xlink:href="#DejaVuSans-70" transform="translate(2017.082031 0)"/>
     <use xlink:href="#DejaVuSans-65" transform="translate(2080.558594 0)"/>
     <use xlink:href="#DejaVuSans-72" transform="translate(2142.082031 0)"/>
     <use xlink:href="#DejaVuSans-70" transform="translate(2183.195312 0)"/>
     <use xlink:href="#DejaVuSans-61" transform="translate(2246.671875 0)"/>
     <use xlink:href="#DejaVuSans-72" transform="translate(2307.951172 0)"/>
     <use xlink:href="#DejaVuSans-61" transform="translate(2349.064453 0)"/>
     <use xlink:href="#DejaVuSans-6d" transform="translate(2410.34375 0)"/>
     <use xlink:href="#DejaVuSans-65" transform="translate(2507.755859 0)"/>
     <use xlink:href="#DejaVuSans-74" transform="translate(2569.279297 0)"/>
     <use xlink:href="#DejaVuSans-65" transform="translate(2608.488281 0)"/>
     <use xlink:href="#DejaVuSans-72" transform="translate(2670.011719 0)"/>
     <use xlink:href="#DejaVuSans-73" transform="translate(2711.125 0)"/>
     <use xlink:href="#DejaVuSans-29" transform="translate(2763.224609 0)"/>
    </g>
   </g>
   <g id="legend_1">
    <g id="patch_7">
     <path d="M 484.408915 161.94 
L 566.687821 161.94 
Q 567.687821 161.94 567.687821 160.94 
L 567.687821 26.44 
Q 567.687821 25.44 566.687821 25.44 
L 484.408915 25.44 
Q 483.408915 25.44 483.408915 26.44 
L 483.408915 160.94 
Q 483.408915 161.94 484.408915 161.94 
z
" style="fill: #ffffff; opacity: 0.8; stroke: #cccccc; stroke-linejoin: miter"/>
    </g>
    <g id="line2d_39">
     <path d="M 485.408915 29.511094 
L 490.408915 29.511094 
L 495.408915 29.511094 
" style="fill: none; stroke-dasharray: 5.55,2.4; stroke-dashoffset: 0; stroke: #1f77b4; stroke-width: 1.5"/>
    </g>
    <g id="text_14">
     <!-- NP | batch=128 | lr=0.001 -->
     <g transform="translate(499.408915 31.261094) scale(0.05 -0.05)">
      <defs>
       <path id="DejaVuSans-4e" d="M 628 4666 
L 1478 4666 
L 3547 763 
L 3547 4666 
L 4159 4666 
L 4159 0 
L 3309 0 
L 1241 3903 
L 1241 0 
L 628 0 
L 628 4666 
z
" transform="scale(0.015625)"/>
       <path id="DejaVuSans-50" d="M 1259 4147 
L 1259 2394 
L 2053 2394 
Q 2494 2394 2734 2622 
Q 2975 2850 2975 3272 
Q 2975 3691 2734 3919 
Q 2494 4147 2053 4147 
L 1259 4147 
z
M 628 4666 
L 2053 4666 
Q 2838 4666 3239 4311 
Q 3641 3956 3641 3272 
Q 3641 2581 3239 2228 
Q 2838 1875 2053 1875 
L 1259 1875 
L 1259 0 
L 628 0 
L 628 4666 
z
" transform="scale(0.015625)"/>
       <path id="DejaVuSans-7c" d="M 1344 4891 
L 1344 -1509 
L 813 -1509 
L 813 4891 
L 1344 4891 
z
" transform="scale(0.015625)"/>
       <path id="DejaVuSans-62" d="M 3116 1747 
Q 3116 2381 2855 2742 
Q 2594 3103 2138 3103 
Q 1681 3103 1420 2742 
Q 1159 2381 1159 1747 
Q 1159 1113 1420 752 
Q 1681 391 2138 391 
Q 2594 391 2855 752 
Q 3116 1113 3116 1747 
z
M 1159 2969 
Q 1341 3281 1617 3432 
Q 1894 3584 2278 3584 
Q 2916 3584 3314 3078 
Q 3713 2572 3713 1747 
Q 3713 922 3314 415 
Q 2916 -91 2278 -91 
Q 1894 -91 1617 61 
Q 1341 213 1159 525 
L 1159 0 
L 581 0 
L 581 4863 
L 1159 4863 
L 1159 2969 
z
" transform="scale(0.015625)"/>
       <path id="DejaVuSans-3d" d="M 678 2906 
L 4684 2906 
L 4684 2381 
L 678 2381 
L 678 2906 
z
M 678 1631 
L 4684 1631 
L 4684 1100 
L 678 1100 
L 678 1631 
z
" transform="scale(0.015625)"/>
       <path id="DejaVuSans-6c" d="M 603 4863 
L 1178 4863 
L 1178 0 
L 603 0 
L 603 4863 
z
" transform="scale(0.015625)"/>
      </defs>
      <use xlink:href="#DejaVuSans-4e"/>
      <use xlink:href="#DejaVuSans-50" transform="translate(74.804688 0)"/>
      <use xlink:href="#DejaVuSans-20" transform="translate(135.107422 0)"/>
      <use xlink:href="#DejaVuSans-7c" transform="translate(166.894531 0)"/>
      <use xlink:href="#DejaVuSans-20" transform="translate(200.585938 0)"/>
      <use xlink:href="#DejaVuSans-62" transform="translate(232.373047 0)"/>
      <use xlink:href="#DejaVuSans-61" transform="translate(295.849609 0)"/>
      <use xlink:href="#DejaVuSans-74" transform="translate(357.128906 0)"/>
      <use xlink:href="#DejaVuSans-63" transform="translate(396.337891 0)"/>
      <use xlink:href="#DejaVuSans-68" transform="translate(451.318359 0)"/>
      <use xlink:href="#DejaVuSans-3d" transform="translate(514.697266 0)"/>
      <use xlink:href="#DejaVuSans-31" transform="translate(598.486328 0)"/>
      <use xlink:href="#DejaVuSans-32" transform="translate(662.109375 0)"/>
      <use xlink:href="#DejaVuSans-38" transform="translate(725.732422 0)"/>
      <use xlink:href="#DejaVuSans-20" transform="translate(789.355469 0)"/>
      <use xlink:href="#DejaVuSans-7c" transform="translate(821.142578 0)"/>
      <use xlink:href="#DejaVuSans-20" transform="translate(854.833984 0)"/>
      <use xlink:href="#DejaVuSans-6c" transform="translate(886.621094 0)"/>
      <use xlink:href="#DejaVuSans-72" transform="translate(914.404297 0)"/>
      <use xlink:href="#DejaVuSans-3d" transform="translate(955.517578 0)"/>
      <use xlink:href="#DejaVuSans-30" transform="translate(1039.306641 0)"/>
      <use xlink:href="#DejaVuSans-2e" transform="translate(1102.929688 0)"/>
      <use xlink:href="#DejaVuSans-30" transform="translate(1134.716797 0)"/>
      <use xlink:href="#DejaVuSans-30" transform="translate(1198.339844 0)"/>
      <use xlink:href="#DejaVuSans-31" transform="translate(1261.962891 0)"/>
     </g>
    </g>
    <g id="line2d_40">
     <path d="M 485.408915 37.011094 
L 490.408915 37.011094 
L 495.408915 37.011094 
" style="fill: none; stroke-dasharray: 5.55,2.4; stroke-dashoffset: 0; stroke: #ff7f0e; stroke-width: 1.5"/>
    </g>
    <g id="text_15">
     <!-- NP | batch=128 | lr=0.01 -->
     <g transform="translate(499.408915 38.761094) scale(0.05 -0.05)">
      <use xlink:href="#DejaVuSans-4e"/>
      <use xlink:href="#DejaVuSans-50" transform="translate(74.804688 0)"/>
      <use xlink:href="#DejaVuSans-20" transform="translate(135.107422 0)"/>
      <use xlink:href="#DejaVuSans-7c" transform="translate(166.894531 0)"/>
      <use xlink:href="#DejaVuSans-20" transform="translate(200.585938 0)"/>
      <use xlink:href="#DejaVuSans-62" transform="translate(232.373047 0)"/>
      <use xlink:href="#DejaVuSans-61" transform="translate(295.849609 0)"/>
      <use xlink:href="#DejaVuSans-74" transform="translate(357.128906 0)"/>
      <use xlink:href="#DejaVuSans-63" transform="translate(396.337891 0)"/>
      <use xlink:href="#DejaVuSans-68" transform="translate(451.318359 0)"/>
      <use xlink:href="#DejaVuSans-3d" transform="translate(514.697266 0)"/>
      <use xlink:href="#DejaVuSans-31" transform="translate(598.486328 0)"/>
      <use xlink:href="#DejaVuSans-32" transform="translate(662.109375 0)"/>
      <use xlink:href="#DejaVuSans-38" transform="translate(725.732422 0)"/>
      <use xlink:href="#DejaVuSans-20" transform="translate(789.355469 0)"/>
      <use xlink:href="#DejaVuSans-7c" transform="translate(821.142578 0)"/>
      <use xlink:href="#DejaVuSans-20" transform="translate(854.833984 0)"/>
      <use xlink:href="#DejaVuSans-6c" transform="translate(886.621094 0)"/>
      <use xlink:href="#DejaVuSans-72" transform="translate(914.404297 0)"/>
      <use xlink:href="#DejaVuSans-3d" transform="translate(955.517578 0)"/>
      <use xlink:href="#DejaVuSans-30" transform="translate(1039.306641 0)"/>
      <use xlink:href="#DejaVuSans-2e" transform="translate(1102.929688 0)"/>
      <use xlink:href="#DejaVuSans-30" transform="translate(1134.716797 0)"/>
      <use xlink:href="#DejaVuSans-31" transform="translate(1198.339844 0)"/>
     </g>
    </g>
    <g id="line2d_41">
     <path d="M 485.408915 44.511094 
L 490.408915 44.511094 
L 495.408915 44.511094 
" style="fill: none; stroke-dasharray: 5.55,2.4; stroke-dashoffset: 0; stroke: #2ca02c; stroke-width: 1.5"/>
    </g>
    <g id="text_16">
     <!-- NP | batch=128 | lr=0.1 -->
     <g transform="translate(499.408915 46.261094) scale(0.05 -0.05)">
      <use xlink:href="#DejaVuSans-4e"/>
      <use xlink:href="#DejaVuSans-50" transform="translate(74.804688 0)"/>
      <use xlink:href="#DejaVuSans-20" transform="translate(135.107422 0)"/>
      <use xlink:href="#DejaVuSans-7c" transform="translate(166.894531 0)"/>
      <use xlink:href="#DejaVuSans-20" transform="translate(200.585938 0)"/>
      <use xlink:href="#DejaVuSans-62" transform="translate(232.373047 0)"/>
      <use xlink:href="#DejaVuSans-61" transform="translate(295.849609 0)"/>
      <use xlink:href="#DejaVuSans-74" transform="translate(357.128906 0)"/>
      <use xlink:href="#DejaVuSans-63" transform="translate(396.337891 0)"/>
      <use xlink:href="#DejaVuSans-68" transform="translate(451.318359 0)"/>
      <use xlink:href="#DejaVuSans-3d" transform="translate(514.697266 0)"/>
      <use xlink:href="#DejaVuSans-31" transform="translate(598.486328 0)"/>
      <use xlink:href="#DejaVuSans-32" transform="translate(662.109375 0)"/>
      <use xlink:href="#DejaVuSans-38" transform="translate(725.732422 0)"/>
      <use xlink:href="#DejaVuSans-20" transform="translate(789.355469 0)"/>
      <use xlink:href="#DejaVuSans-7c" transform="translate(821.142578 0)"/>
      <use xlink:href="#DejaVuSans-20" transform="translate(854.833984 0)"/>
      <use xlink:href="#DejaVuSans-6c" transform="translate(886.621094 0)"/>
      <use xlink:href="#DejaVuSans-72" transform="translate(914.404297 0)"/>
      <use xlink:href="#DejaVuSans-3d" transform="translate(955.517578 0)"/>
      <use xlink:href="#DejaVuSans-30" transform="translate(1039.306641 0)"/>
      <use xlink:href="#DejaVuSans-2e" transform="translate(1102.929688 0)"/>
      <use xlink:href="#DejaVuSans-31" transform="translate(1134.716797 0)"/>
     </g>
    </g>
    <g id="line2d_42">
     <path d="M 485.408915 52.011094 
L 490.408915 52.011094 
L 495.408915 52.011094 
" style="fill: none; stroke-dasharray: 5.55,2.4; stroke-dashoffset: 0; stroke: #d62728; stroke-width: 1.5"/>
    </g>
    <g id="text_17">
     <!-- NP | batch=32 | lr=0.001 -->
     <g transform="translate(499.408915 53.761094) scale(0.05 -0.05)">
      <defs>
       <path id="DejaVuSans-33" d="M 2597 2516 
Q 3050 2419 3304 2112 
Q 3559 1806 3559 1356 
Q 3559 666 3084 287 
Q 2609 -91 1734 -91 
Q 1441 -91 1130 -33 
Q 819 25 488 141 
L 488 750 
Q 750 597 1062 519 
Q 1375 441 1716 441 
Q 2309 441 2620 675 
Q 2931 909 2931 1356 
Q 2931 1769 2642 2001 
Q 2353 2234 1838 2234 
L 1294 2234 
L 1294 2753 
L 1863 2753 
Q 2328 2753 2575 2939 
Q 2822 3125 2822 3475 
Q 2822 3834 2567 4026 
Q 2313 4219 1838 4219 
Q 1578 4219 1281 4162 
Q 984 4106 628 3988 
L 628 4550 
Q 988 4650 1302 4700 
Q 1616 4750 1894 4750 
Q 2613 4750 3031 4423 
Q 3450 4097 3450 3541 
Q 3450 3153 3228 2886 
Q 3006 2619 2597 2516 
z
" transform="scale(0.015625)"/>
      </defs>
      <use xlink:href="#DejaVuSans-4e"/>
      <use xlink:href="#DejaVuSans-50" transform="translate(74.804688 0)"/>
      <use xlink:href="#DejaVuSans-20" transform="translate(135.107422 0)"/>
      <use xlink:href="#DejaVuSans-7c" transform="translate(166.894531 0)"/>
      <use xlink:href="#DejaVuSans-20" transform="translate(200.585938 0)"/>
      <use xlink:href="#DejaVuSans-62" transform="translate(232.373047 0)"/>
      <use xlink:href="#DejaVuSans-61" transform="translate(295.849609 0)"/>
      <use xlink:href="#DejaVuSans-74" transform="translate(357.128906 0)"/>
      <use xlink:href="#DejaVuSans-63" transform="translate(396.337891 0)"/>
      <use xlink:href="#DejaVuSans-68" transform="translate(451.318359 0)"/>
      <use xlink:href="#DejaVuSans-3d" transform="translate(514.697266 0)"/>
      <use xlink:href="#DejaVuSans-33" transform="translate(598.486328 0)"/>
      <use xlink:href="#DejaVuSans-32" transform="translate(662.109375 0)"/>
      <use xlink:href="#DejaVuSans-20" transform="translate(725.732422 0)"/>
      <use xlink:href="#DejaVuSans-7c" transform="translate(757.519531 0)"/>
      <use xlink:href="#DejaVuSans-20" transform="translate(791.210938 0)"/>
      <use xlink:href="#DejaVuSans-6c" transform="translate(822.998047 0)"/>
      <use xlink:href="#DejaVuSans-72" transform="translate(850.78125 0)"/>
      <use xlink:href="#DejaVuSans-3d" transform="translate(891.894531 0)"/>
      <use xlink:href="#DejaVuSans-30" transform="translate(975.683594 0)"/>
      <use xlink:href="#DejaVuSans-2e" transform="translate(1039.306641 0)"/>
      <use xlink:href="#DejaVuSans-30" transform="translate(1071.09375 0)"/>
      <use xlink:href="#DejaVuSans-30" transform="translate(1134.716797 0)"/>
      <use xlink:href="#DejaVuSans-31" transform="translate(1198.339844 0)"/>
     </g>
    </g>
    <g id="line2d_43">
     <path d="M 485.408915 59.511094 
L 490.408915 59.511094 
L 495.408915 59.511094 
" style="fill: none; stroke-dasharray: 5.55,2.4; stroke-dashoffset: 0; stroke: #9467bd; stroke-width: 1.5"/>
    </g>
    <g id="text_18">
     <!-- NP | batch=32 | lr=0.01 -->
     <g transform="translate(499.408915 61.261094) scale(0.05 -0.05)">
      <use xlink:href="#DejaVuSans-4e"/>
      <use xlink:href="#DejaVuSans-50" transform="translate(74.804688 0)"/>
      <use xlink:href="#DejaVuSans-20" transform="translate(135.107422 0)"/>
      <use xlink:href="#DejaVuSans-7c" transform="translate(166.894531 0)"/>
      <use xlink:href="#DejaVuSans-20" transform="translate(200.585938 0)"/>
      <use xlink:href="#DejaVuSans-62" transform="translate(232.373047 0)"/>
      <use xlink:href="#DejaVuSans-61" transform="translate(295.849609 0)"/>
      <use xlink:href="#DejaVuSans-74" transform="translate(357.128906 0)"/>
      <use xlink:href="#DejaVuSans-63" transform="translate(396.337891 0)"/>
      <use xlink:href="#DejaVuSans-68" transform="translate(451.318359 0)"/>
      <use xlink:href="#DejaVuSans-3d" transform="translate(514.697266 0)"/>
      <use xlink:href="#DejaVuSans-33" transform="translate(598.486328 0)"/>
      <use xlink:href="#DejaVuSans-32" transform="translate(662.109375 0)"/>
      <use xlink:href="#DejaVuSans-20" transform="translate(725.732422 0)"/>
      <use xlink:href="#DejaVuSans-7c" transform="translate(757.519531 0)"/>
      <use xlink:href="#DejaVuSans-20" transform="translate(791.210938 0)"/>
      <use xlink:href="#DejaVuSans-6c" transform="translate(822.998047 0)"/>
      <use xlink:href="#DejaVuSans-72" transform="translate(850.78125 0)"/>
      <use xlink:href="#DejaVuSans-3d" transform="translate(891.894531 0)"/>
      <use xlink:href="#DejaVuSans-30" transform="translate(975.683594 0)"/>
      <use xlink:href="#DejaVuSans-2e" transform="translate(1039.306641 0)"/>
      <use xlink:href="#DejaVuSans-30" transform="translate(1071.09375 0)"/>
      <use xlink:href="#DejaVuSans-31" transform="translate(1134.716797 0)"/>
     </g>
    </g>
    <g id="line2d_44">
     <path d="M 485.408915 67.011094 
L 490.408915 67.011094 
L 495.408915 67.011094 
" style="fill: none; stroke-dasharray: 5.55,2.4; stroke-dashoffset: 0; stroke: #8c564b; stroke-width: 1.5"/>
    </g>
    <g id="text_19">
     <!-- NP | batch=32 | lr=0.1 -->
     <g transform="translate(499.408915 68.761094) scale(0.05 -0.05)">
      <use xlink:href="#DejaVuSans-4e"/>
      <use xlink:href="#DejaVuSans-50" transform="translate(74.804688 0)"/>
      <use xlink:href="#DejaVuSans-20" transform="translate(135.107422 0)"/>
      <use xlink:href="#DejaVuSans-7c" transform="translate(166.894531 0)"/>
      <use xlink:href="#DejaVuSans-20" transform="translate(200.585938 0)"/>
      <use xlink:href="#DejaVuSans-62" transform="translate(232.373047 0)"/>
      <use xlink:href="#DejaVuSans-61" transform="translate(295.849609 0)"/>
      <use xlink:href="#DejaVuSans-74" transform="translate(357.128906 0)"/>
      <use xlink:href="#DejaVuSans-63" transform="translate(396.337891 0)"/>
      <use xlink:href="#DejaVuSans-68" transform="translate(451.318359 0)"/>
      <use xlink:href="#DejaVuSans-3d" transform="translate(514.697266 0)"/>
      <use xlink:href="#DejaVuSans-33" transform="translate(598.486328 0)"/>
      <use xlink:href="#DejaVuSans-32" transform="translate(662.109375 0)"/>
      <use xlink:href="#DejaVuSans-20" transform="translate(725.732422 0)"/>
      <use xlink:href="#DejaVuSans-7c" transform="translate(757.519531 0)"/>
      <use xlink:href="#DejaVuSans-20" transform="translate(791.210938 0)"/>
      <use xlink:href="#DejaVuSans-6c" transform="translate(822.998047 0)"/>
      <use xlink:href="#DejaVuSans-72" transform="translate(850.78125 0)"/>
      <use xlink:href="#DejaVuSans-3d" transform="translate(891.894531 0)"/>
      <use xlink:href="#DejaVuSans-30" transform="translate(975.683594 0)"/>
      <use xlink:href="#DejaVuSans-2e" transform="translate(1039.306641 0)"/>
      <use xlink:href="#DejaVuSans-31" transform="translate(1071.09375 0)"/>
     </g>
    </g>
    <g id="line2d_45">
     <path d="M 485.408915 74.511094 
L 490.408915 74.511094 
L 495.408915 74.511094 
" style="fill: none; stroke-dasharray: 5.55,2.4; stroke-dashoffset: 0; stroke: #e377c2; stroke-width: 1.5"/>
    </g>
    <g id="text_20">
     <!-- NP | batch=512 | lr=0.001 -->
     <g transform="translate(499.408915 76.261094) scale(0.05 -0.05)">
      <use xlink:href="#DejaVuSans-4e"/>
      <use xlink:href="#DejaVuSans-50" transform="translate(74.804688 0)"/>
      <use xlink:href="#DejaVuSans-20" transform="translate(135.107422 0)"/>
      <use xlink:href="#DejaVuSans-7c" transform="translate(166.894531 0)"/>
      <use xlink:href="#DejaVuSans-20" transform="translate(200.585938 0)"/>
      <use xlink:href="#DejaVuSans-62" transform="translate(232.373047 0)"/>
      <use xlink:href="#DejaVuSans-61" transform="translate(295.849609 0)"/>
      <use xlink:href="#DejaVuSans-74" transform="translate(357.128906 0)"/>
      <use xlink:href="#DejaVuSans-63" transform="translate(396.337891 0)"/>
      <use xlink:href="#DejaVuSans-68" transform="translate(451.318359 0)"/>
      <use xlink:href="#DejaVuSans-3d" transform="translate(514.697266 0)"/>
      <use xlink:href="#DejaVuSans-35" transform="translate(598.486328 0)"/>
      <use xlink:href="#DejaVuSans-31" transform="translate(662.109375 0)"/>
      <use xlink:href="#DejaVuSans-32" transform="translate(725.732422 0)"/>
      <use xlink:href="#DejaVuSans-20" transform="translate(789.355469 0)"/>
      <use xlink:href="#DejaVuSans-7c" transform="translate(821.142578 0)"/>
      <use xlink:href="#DejaVuSans-20" transform="translate(854.833984 0)"/>
      <use xlink:href="#DejaVuSans-6c" transform="translate(886.621094 0)"/>
      <use xlink:href="#DejaVuSans-72" transform="translate(914.404297 0)"/>
      <use xlink:href="#DejaVuSans-3d" transform="translate(955.517578 0)"/>
      <use xlink:href="#DejaVuSans-30" transform="translate(1039.306641 0)"/>
      <use xlink:href="#DejaVuSans-2e" transform="translate(1102.929688 0)"/>
      <use xlink:href="#DejaVuSans-30" transform="translate(1134.716797 0)"/>
      <use xlink:href="#DejaVuSans-30" transform="translate(1198.339844 0)"/>
      <use xlink:href="#DejaVuSans-31" transform="translate(1261.962891 0)"/>
     </g>
    </g>
    <g id="line2d_46">
     <path d="M 485.408915 82.011094 
L 490.408915 82.011094 
L 495.408915 82.011094 
" style="fill: none; stroke-dasharray: 5.55,2.4; stroke-dashoffset: 0; stroke: #7f7f7f; stroke-width: 1.5"/>
    </g>
    <g id="text_21">
     <!-- NP | batch=512 | lr=0.01 -->
     <g transform="translate(499.408915 83.761094) scale(0.05 -0.05)">
      <use xlink:href="#DejaVuSans-4e"/>
      <use xlink:href="#DejaVuSans-50" transform="translate(74.804688 0)"/>
      <use xlink:href="#DejaVuSans-20" transform="translate(135.107422 0)"/>
      <use xlink:href="#DejaVuSans-7c" transform="translate(166.894531 0)"/>
      <use xlink:href="#DejaVuSans-20" transform="translate(200.585938 0)"/>
      <use xlink:href="#DejaVuSans-62" transform="translate(232.373047 0)"/>
      <use xlink:href="#DejaVuSans-61" transform="translate(295.849609 0)"/>
      <use xlink:href="#DejaVuSans-74" transform="translate(357.128906 0)"/>
      <use xlink:href="#DejaVuSans-63" transform="translate(396.337891 0)"/>
      <use xlink:href="#DejaVuSans-68" transform="translate(451.318359 0)"/>
      <use xlink:href="#DejaVuSans-3d" transform="translate(514.697266 0)"/>
      <use xlink:href="#DejaVuSans-35" transform="translate(598.486328 0)"/>
      <use xlink:href="#DejaVuSans-31" transform="translate(662.109375 0)"/>
      <use xlink:href="#DejaVuSans-32" transform="translate(725.732422 0)"/>
      <use xlink:href="#DejaVuSans-20" transform="translate(789.355469 0)"/>
      <use xlink:href="#DejaVuSans-7c" transform="translate(821.142578 0)"/>
      <use xlink:href="#DejaVuSans-20" transform="translate(854.833984 0)"/>
      <use xlink:href="#DejaVuSans-6c" transform="translate(886.621094 0)"/>
      <use xlink:href="#DejaVuSans-72" transform="translate(914.404297 0)"/>
      <use xlink:href="#DejaVuSans-3d" transform="translate(955.517578 0)"/>
      <use xlink:href="#DejaVuSans-30" transform="translate(1039.306641 0)"/>
      <use xlink:href="#DejaVuSans-2e" transform="translate(1102.929688 0)"/>
      <use xlink:href="#DejaVuSans-30" transform="translate(1134.716797 0)"/>
      <use xlink:href="#DejaVuSans-31" transform="translate(1198.339844 0)"/>
     </g>
    </g>
    <g id="line2d_47">
     <path d="M 485.408915 89.511094 
L 490.408915 89.511094 
L 495.408915 89.511094 
" style="fill: none; stroke-dasharray: 5.55,2.4; stroke-dashoffset: 0; stroke: #bcbd22; stroke-width: 1.5"/>
    </g>
    <g id="text_22">
     <!-- NP | batch=512 | lr=0.1 -->
     <g transform="translate(499.408915 91.261094) scale(0.05 -0.05)">
      <use xlink:href="#DejaVuSans-4e"/>
      <use xlink:href="#DejaVuSans-50" transform="translate(74.804688 0)"/>
      <use xlink:href="#DejaVuSans-20" transform="translate(135.107422 0)"/>
      <use xlink:href="#DejaVuSans-7c" transform="translate(166.894531 0)"/>
      <use xlink:href="#DejaVuSans-20" transform="translate(200.585938 0)"/>
      <use xlink:href="#DejaVuSans-62" transform="translate(232.373047 0)"/>
      <use xlink:href="#DejaVuSans-61" transform="translate(295.849609 0)"/>
      <use xlink:href="#DejaVuSans-74" transform="translate(357.128906 0)"/>
      <use xlink:href="#DejaVuSans-63" transform="translate(396.337891 0)"/>
      <use xlink:href="#DejaVuSans-68" transform="translate(451.318359 0)"/>
      <use xlink:href="#DejaVuSans-3d" transform="translate(514.697266 0)"/>
      <use xlink:href="#DejaVuSans-35" transform="translate(598.486328 0)"/>
      <use xlink:href="#DejaVuSans-31" transform="translate(662.109375 0)"/>
      <use xlink:href="#DejaVuSans-32" transform="translate(725.732422 0)"/>
      <use xlink:href="#DejaVuSans-20" transform="translate(789.355469 0)"/>
      <use xlink:href="#DejaVuSans-7c" transform="translate(821.142578 0)"/>
      <use xlink:href="#DejaVuSans-20" transform="translate(854.833984 0)"/>
      <use xlink:href="#DejaVuSans-6c" transform="translate(886.621094 0)"/>
      <use xlink:href="#DejaVuSans-72" transform="translate(914.404297 0)"/>
      <use xlink:href="#DejaVuSans-3d" transform="translate(955.517578 0)"/>
      <use xlink:href="#DejaVuSans-30" transform="translate(1039.306641 0)"/>
      <use xlink:href="#DejaVuSans-2e" transform="translate(1102.929688 0)"/>
      <use xlink:href="#DejaVuSans-31" transform="translate(1134.716797 0)"/>
     </g>
    </g>
    <g id="line2d_48">
     <path d="M 485.408915 97.011094 
L 490.408915 97.011094 
L 495.408915 97.011094 
" style="fill: none; stroke: #17becf; stroke-width: 1.5; stroke-linecap: square"/>
    </g>
    <g id="text_23">
     <!-- TF | batch=128 | lr=0.001 -->
     <g transform="translate(499.408915 98.761094) scale(0.05 -0.05)">
      <defs>
       <path id="DejaVuSans-46" d="M 628 4666 
L 3309 4666 
L 3309 4134 
L 1259 4134 
L 1259 2759 
L 3109 2759 
L 3109 2228 
L 1259 2228 
L 1259 0 
L 628 0 
L 628 4666 
z
" transform="scale(0.015625)"/>
      </defs>
      <use xlink:href="#DejaVuSans-54"/>
      <use xlink:href="#DejaVuSans-46" transform="translate(61.083984 0)"/>
      <use xlink:href="#DejaVuSans-20" transform="translate(118.603516 0)"/>
      <use xlink:href="#DejaVuSans-7c" transform="translate(150.390625 0)"/>
      <use xlink:href="#DejaVuSans-20" transform="translate(184.082031 0)"/>
      <use xlink:href="#DejaVuSans-62" transform="translate(215.869141 0)"/>
      <use xlink:href="#DejaVuSans-61" transform="translate(279.345703 0)"/>
      <use xlink:href="#DejaVuSans-74" transform="translate(340.625 0)"/>
      <use xlink:href="#DejaVuSans-63" transform="translate(379.833984 0)"/>
      <use xlink:href="#DejaVuSans-68" transform="translate(434.814453 0)"/>
      <use xlink:href="#DejaVuSans-3d" transform="translate(498.193359 0)"/>
      <use xlink:href="#DejaVuSans-31" transform="translate(581.982422 0)"/>
      <use xlink:href="#DejaVuSans-32" transform="translate(645.605469 0)"/>
      <use xlink:href="#DejaVuSans-38" transform="translate(709.228516 0)"/>
      <use xlink:href="#DejaVuSans-20" transform="translate(772.851562 0)"/>
      <use xlink:href="#DejaVuSans-7c" transform="translate(804.638672 0)"/>
      <use xlink:href="#DejaVuSans-20" transform="translate(838.330078 0)"/>
      <use xlink:href="#DejaVuSans-6c" transform="translate(870.117188 0)"/>
      <use xlink:href="#DejaVuSans-72" transform="translate(897.900391 0)"/>
      <use xlink:href="#DejaVuSans-3d" transform="translate(939.013672 0)"/>
      <use xlink:href="#DejaVuSans-30" transform="translate(1022.802734 0)"/>
      <use xlink:href="#DejaVuSans-2e" transform="translate(1086.425781 0)"/>
      <use xlink:href="#DejaVuSans-30" transform="translate(1118.212891 0)"/>
      <use xlink:href="#DejaVuSans-30" transform="translate(1181.835938 0)"/>
      <use xlink:href="#DejaVuSans-31" transform="translate(1245.458984 0)"/>
     </g>
    </g>
    <g id="line2d_49">
     <path d="M 485.408915 104.511094 
L 490.408915 104.511094 
L 495.408915 104.511094 
" style="fill: none; stroke: #1f77b4; stroke-width: 1.5; stroke-linecap: square"/>
    </g>
    <g id="text_24">
     <!-- TF | batch=128 | lr=0.01 -->
     <g transform="translate(499.408915 106.261094) scale(0.05 -0.05)">
      <use xlink:href="#DejaVuSans-54"/>
      <use xlink:href="#DejaVuSans-46" transform="translate(61.083984 0)"/>
      <use xlink:href="#DejaVuSans-20" transform="translate(118.603516 0)"/>
      <use xlink:href="#DejaVuSans-7c" transform="translate(150.390625 0)"/>
      <use xlink:href="#DejaVuSans-20" transform="translate(184.082031 0)"/>
      <use xlink:href="#DejaVuSans-62" transform="translate(215.869141 0)"/>
      <use xlink:href="#DejaVuSans-61" transform="translate(279.345703 0)"/>
      <use xlink:href="#DejaVuSans-74" transform="translate(340.625 0)"/>
      <use xlink:href="#DejaVuSans-63" transform="translate(379.833984 0)"/>
      <use xlink:href="#DejaVuSans-68" transform="translate(434.814453 0)"/>
      <use xlink:href="#DejaVuSans-3d" transform="translate(498.193359 0)"/>
      <use xlink:href="#DejaVuSans-31" transform="translate(581.982422 0)"/>
      <use xlink:href="#DejaVuSans-32" transform="translate(645.605469 0)"/>
      <use xlink:href="#DejaVuSans-38" transform="translate(709.228516 0)"/>
      <use xlink:href="#DejaVuSans-20" transform="translate(772.851562 0)"/>
      <use xlink:href="#DejaVuSans-7c" transform="translate(804.638672 0)"/>
      <use xlink:href="#DejaVuSans-20" transform="translate(838.330078 0)"/>
      <use xlink:href="#DejaVuSans-6c" transform="translate(870.117188 0)"/>
      <use xlink:href="#DejaVuSans-72" transform="translate(897.900391 0)"/>
      <use xlink:href="#DejaVuSans-3d" transform="translate(939.013672 0)"/>
      <use xlink:href="#DejaVuSans-30" transform="translate(1022.802734 0)"/>
      <use xlink:href="#DejaVuSans-2e" transform="translate(1086.425781 0)"/>
      <use xlink:href="#DejaVuSans-30" transform="translate(1118.212891 0)"/>
      <use xlink:href="#DejaVuSans-31" transform="translate(1181.835938 0)"/>
     </g>
    </g>
    <g id="line2d_50">
     <path d="M 485.408915 112.011094 
L 490.408915 112.011094 
L 495.408915 112.011094 
" style="fill: none; stroke: #ff7f0e; stroke-width: 1.5; stroke-linecap: square"/>
    </g>
    <g id="text_25">
     <!-- TF | batch=128 | lr=0.1 -->
     <g transform="translate(499.408915 113.761094) scale(0.05 -0.05)">
      <use xlink:href="#DejaVuSans-54"/>
      <use xlink:href="#DejaVuSans-46" transform="translate(61.083984 0)"/>
      <use xlink:href="#DejaVuSans-20" transform="translate(118.603516 0)"/>
      <use xlink:href="#DejaVuSans-7c" transform="translate(150.390625 0)"/>
      <use xlink:href="#DejaVuSans-20" transform="translate(184.082031 0)"/>
      <use xlink:href="#DejaVuSans-62" transform="translate(215.869141 0)"/>
      <use xlink:href="#DejaVuSans-61" transform="translate(279.345703 0)"/>
      <use xlink:href="#DejaVuSans-74" transform="translate(340.625 0)"/>
      <use xlink:href="#DejaVuSans-63" transform="translate(379.833984 0)"/>
      <use xlink:href="#DejaVuSans-68" transform="translate(434.814453 0)"/>
      <use xlink:href="#DejaVuSans-3d" transform="translate(498.193359 0)"/>
      <use xlink:href="#DejaVuSans-31" transform="translate(581.982422 0)"/>
      <use xlink:href="#DejaVuSans-32" transform="translate(645.605469 0)"/>
      <use xlink:href="#DejaVuSans-38" transform="translate(709.228516 0)"/>
      <use xlink:href="#DejaVuSans-20" transform="translate(772.851562 0)"/>
      <use xlink:href="#DejaVuSans-7c" transform="translate(804.638672 0)"/>
      <use xlink:href="#DejaVuSans-20" transform="translate(838.330078 0)"/>
      <use xlink:href="#DejaVuSans-6c" transform="translate(870.117188 0)"/>
      <use xlink:href="#DejaVuSans-72" transform="translate(897.900391 0)"/>
      <use xlink:href="#DejaVuSans-3d" transform="translate(939.013672 0)"/>
      <use xlink:href="#DejaVuSans-30" transform="translate(1022.802734 0)"/>
      <use xlink:href="#DejaVuSans-2e" transform="translate(1086.425781 0)"/>
      <use xlink:href="#DejaVuSans-31" transform="translate(1118.212891 0)"/>
     </g>
    </g>
    <g id="line2d_51">
     <path d="M 485.408915 119.511094 
L 490.408915 119.511094 
L 495.408915 119.511094 
" style="fill: none; stroke: #2ca02c; stroke-width: 1.5; stroke-linecap: square"/>
    </g>
    <g id="text_26">
     <!-- TF | batch=32 | lr=0.001 -->
     <g transform="translate(499.408915 121.261094) scale(0.05 -0.05)">
      <use xlink:href="#DejaVuSans-54"/>
      <use xlink:href="#DejaVuSans-46" transform="translate(61.083984 0)"/>
      <use xlink:href="#DejaVuSans-20" transform="translate(118.603516 0)"/>
      <use xlink:href="#DejaVuSans-7c" transform="translate(150.390625 0)"/>
      <use xlink:href="#DejaVuSans-20" transform="translate(184.082031 0)"/>
      <use xlink:href="#DejaVuSans-62" transform="translate(215.869141 0)"/>
      <use xlink:href="#DejaVuSans-61" transform="translate(279.345703 0)"/>
      <use xlink:href="#DejaVuSans-74" transform="translate(340.625 0)"/>
      <use xlink:href="#DejaVuSans-63" transform="translate(379.833984 0)"/>
      <use xlink:href="#DejaVuSans-68" transform="translate(434.814453 0)"/>
      <use xlink:href="#DejaVuSans-3d" transform="translate(498.193359 0)"/>
      <use xlink:href="#DejaVuSans-33" transform="translate(581.982422 0)"/>
      <use xlink:href="#DejaVuSans-32" transform="translate(645.605469 0)"/>
      <use xlink:href="#DejaVuSans-20" transform="translate(709.228516 0)"/>
      <use xlink:href="#DejaVuSans-7c" transform="translate(741.015625 0)"/>
      <use xlink:href="#DejaVuSans-20" transform="translate(774.707031 0)"/>
      <use xlink:href="#DejaVuSans-6c" transform="translate(806.494141 0)"/>
      <use xlink:href="#DejaVuSans-72" transform="translate(834.277344 0)"/>
      <use xlink:href="#DejaVuSans-3d" transform="translate(875.390625 0)"/>
      <use xlink:href="#DejaVuSans-30" transform="translate(959.179688 0)"/>
      <use xlink:href="#DejaVuSans-2e" transform="translate(1022.802734 0)"/>
      <use xlink:href="#DejaVuSans-30" transform="translate(1054.589844 0)"/>
      <use xlink:href="#DejaVuSans-30" transform="translate(1118.212891 0)"/>
      <use xlink:href="#DejaVuSans-31" transform="translate(1181.835938 0)"/>
     </g>
    </g>
    <g id="line2d_52">
     <path d="M 485.408915 127.011094 
L 490.408915 127.011094 
L 495.408915 127.011094 
" style="fill: none; stroke: #d62728; stroke-width: 1.5; stroke-linecap: square"/>
    </g>
    <g id="text_27">
     <!-- TF | batch=32 | lr=0.01 -->
     <g transform="translate(499.408915 128.761094) scale(0.05 -0.05)">
      <use xlink:href="#DejaVuSans-54"/>
      <use xlink:href="#DejaVuSans-46" transform="translate(61.083984 0)"/>
      <use xlink:href="#DejaVuSans-20" transform="translate(118.603516 0)"/>
      <use xlink:href="#DejaVuSans-7c" transform="translate(150.390625 0)"/>
      <use xlink:href="#DejaVuSans-20" transform="translate(184.082031 0)"/>
      <use xlink:href="#DejaVuSans-62" transform="translate(215.869141 0)"/>
      <use xlink:href="#DejaVuSans-61" transform="translate(279.345703 0)"/>
      <use xlink:href="#DejaVuSans-74" transform="translate(340.625 0)"/>
      <use xlink:href="#DejaVuSans-63" transform="translate(379.833984 0)"/>
      <use xlink:href="#DejaVuSans-68" transform="translate(434.814453 0)"/>
      <use xlink:href="#DejaVuSans-3d" transform="translate(498.193359 0)"/>
      <use xlink:href="#DejaVuSans-33" transform="translate(581.982422 0)"/>
      <use xlink:href="#DejaVuSans-32" transform="translate(645.605469 0)"/>
      <use xlink:href="#DejaVuSans-20" transform="translate(709.228516 0)"/>
      <use xlink:href="#DejaVuSans-7c" transform="translate(741.015625 0)"/>
      <use xlink:href="#DejaVuSans-20" transform="translate(774.707031 0)"/>
      <use xlink:href="#DejaVuSans-6c" transform="translate(806.494141 0)"/>
      <use xlink:href="#DejaVuSans-72" transform="translate(834.277344 0)"/>
      <use xlink:href="#DejaVuSans-3d" transform="translate(875.390625 0)"/>
      <use xlink:href="#DejaVuSans-30" transform="translate(959.179688 0)"/>
      <use xlink:href="#DejaVuSans-2e" transform="translate(1022.802734 0)"/>
      <use xlink:href="#DejaVuSans-30" transform="translate(1054.589844 0)"/>
      <use xlink:href="#DejaVuSans-31" transform="translate(1118.212891 0)"/>
     </g>
    </g>
    <g id="line2d_53">
     <path d="M 485.408915 134.511094 
L 490.408915 134.511094 
L 495.408915 134.511094 
" style="fill: none; stroke: #9467bd; stroke-width: 1.5; stroke-linecap: square"/>
    </g>
    <g id="text_28">
     <!-- TF | batch=32 | lr=0.1 -->
     <g transform="translate(499.408915 136.261094) scale(0.05 -0.05)">
      <use xlink:href="#DejaVuSans-54"/>
      <use xlink:href="#DejaVuSans-46" transform="translate(61.083984 0)"/>
      <use xlink:href="#DejaVuSans-20" transform="translate(118.603516 0)"/>
      <use xlink:href="#DejaVuSans-7c" transform="translate(150.390625 0)"/>
      <use xlink:href="#DejaVuSans-20" transform="translate(184.082031 0)"/>
      <use xlink:href="#DejaVuSans-62" transform="translate(215.869141 0)"/>
      <use xlink:href="#DejaVuSans-61" transform="translate(279.345703 0)"/>
      <use xlink:href="#DejaVuSans-74" transform="translate(340.625 0)"/>
      <use xlink:href="#DejaVuSans-63" transform="translate(379.833984 0)"/>
      <use xlink:href="#DejaVuSans-68" transform="translate(434.814453 0)"/>
      <use xlink:href="#DejaVuSans-3d" transform="translate(498.193359 0)"/>
      <use xlink:href="#DejaVuSans-33" transform="translate(581.982422 0)"/>
      <use xlink:href="#DejaVuSans-32" transform="translate(645.605469 0)"/>
      <use xlink:href="#DejaVuSans-20" transform="translate(709.228516 0)"/>
      <use xlink:href="#DejaVuSans-7c" transform="translate(741.015625 0)"/>
      <use xlink:href="#DejaVuSans-20" transform="translate(774.707031 0)"/>
      <use xlink:href="#DejaVuSans-6c" transform="translate(806.494141 0)"/>
      <use xlink:href="#DejaVuSans-72" transform="translate(834.277344 0)"/>
      <use xlink:href="#DejaVuSans-3d" transform="translate(875.390625 0)"/>
      <use xlink:href="#DejaVuSans-30" transform="translate(959.179688 0)"/>
      <use xlink:href="#DejaVuSans-2e" transform="translate(1022.802734 0)"/>
      <use xlink:href="#DejaVuSans-31" transform="translate(1054.589844 0)"/>
     </g>
    </g>
    <g id="line2d_54">
     <path d="M 485.408915 142.011094 
L 490.408915 142.011094 
L 495.408915 142.011094 
" style="fill: none; stroke: #8c564b; stroke-width: 1.5; stroke-linecap: square"/>
    </g>
    <g id="text_29">
     <!-- TF | batch=512 | lr=0.001 -->
     <g transform="translate(499.408915 143.761094) scale(0.05 -0.05)">
      <use xlink:href="#DejaVuSans-54"/>
      <use xlink:href="#DejaVuSans-46" transform="translate(61.083984 0)"/>
      <use xlink:href="#DejaVuSans-20" transform="translate(118.603516 0)"/>
      <use xlink:href="#DejaVuSans-7c" transform="translate(150.390625 0)"/>
      <use xlink:href="#DejaVuSans-20" transform="translate(184.082031 0)"/>
      <use xlink:href="#DejaVuSans-62" transform="translate(215.869141 0)"/>
      <use xlink:href="#DejaVuSans-61" transform="translate(279.345703 0)"/>
      <use xlink:href="#DejaVuSans-74" transform="translate(340.625 0)"/>
      <use xlink:href="#DejaVuSans-63" transform="translate(379.833984 0)"/>
      <use xlink:href="#DejaVuSans-68" transform="translate(434.814453 0)"/>
      <use xlink:href="#DejaVuSans-3d" transform="translate(498.193359 0)"/>
      <use xlink:href="#DejaVuSans-35" transform="translate(581.982422 0)"/>
      <use xlink:href="#DejaVuSans-31" transform="translate(645.605469 0)"/>
      <use xlink:href="#DejaVuSans-32" transform="translate(709.228516 0)"/>
      <use xlink:href="#DejaVuSans-20" transform="translate(772.851562 0)"/>
      <use xlink:href="#DejaVuSans-7c" transform="translate(804.638672 0)"/>
      <use xlink:href="#DejaVuSans-20" transform="translate(838.330078 0)"/>
      <use xlink:href="#DejaVuSans-6c" transform="translate(870.117188 0)"/>
      <use xlink:href="#DejaVuSans-72" transform="translate(897.900391 0)"/>
      <use xlink:href="#DejaVuSans-3d" transform="translate(939.013672 0)"/>
      <use xlink:href="#DejaVuSans-30" transform="translate(1022.802734 0)"/>
      <use xlink:href="#DejaVuSans-2e" transform="translate(1086.425781 0)"/>
      <use xlink:href="#DejaVuSans-30" transform="translate(1118.212891 0)"/>
      <use xlink:href="#DejaVuSans-30" transform="translate(1181.835938 0)"/>
      <use xlink:href="#DejaVuSans-31" transform="translate(1245.458984 0)"/>
     </g>
    </g>
    <g id="line2d_55">
     <path d="M 485.408915 149.511094 
L 490.408915 149.511094 
L 495.408915 149.511094 
" style="fill: none; stroke: #e377c2; stroke-width: 1.5; stroke-linecap: square"/>
    </g>
    <g id="text_30">
     <!-- TF | batch=512 | lr=0.01 -->
     <g transform="translate(499.408915 151.261094) scale(0.05 -0.05)">
      <use xlink:href="#DejaVuSans-54"/>
      <use xlink:href="#DejaVuSans-46" transform="translate(61.083984 0)"/>
      <use xlink:href="#DejaVuSans-20" transform="translate(118.603516 0)"/>
      <use xlink:href="#DejaVuSans-7c" transform="translate(150.390625 0)"/>
      <use xlink:href="#DejaVuSans-20" transform="translate(184.082031 0)"/>
      <use xlink:href="#DejaVuSans-62" transform="translate(215.869141 0)"/>
      <use xlink:href="#DejaVuSans-61" transform="translate(279.345703 0)"/>
      <use xlink:href="#DejaVuSans-74" transform="translate(340.625 0)"/>
      <use xlink:href="#DejaVuSans-63" transform="translate(379.833984 0)"/>
      <use xlink:href="#DejaVuSans-68" transform="translate(434.814453 0)"/>
      <use xlink:href="#DejaVuSans-3d" transform="translate(498.193359 0)"/>
      <use xlink:href="#DejaVuSans-35" transform="translate(581.982422 0)"/>
      <use xlink:href="#DejaVuSans-31" transform="translate(645.605469 0)"/>
      <use xlink:href="#DejaVuSans-32" transform="translate(709.228516 0)"/>
      <use xlink:href="#DejaVuSans-20" transform="translate(772.851562 0)"/>
      <use xlink:href="#DejaVuSans-7c" transform="translate(804.638672 0)"/>
      <use xlink:href="#DejaVuSans-20" transform="translate(838.330078 0)"/>
      <use xlink:href="#DejaVuSans-6c" transform="translate(870.117188 0)"/>
      <use xlink:href="#DejaVuSans-72" transform="translate(897.900391 0)"/>
      <use xlink:href="#DejaVuSans-3d" transform="translate(939.013672 0)"/>
      <use xlink:href="#DejaVuSans-30" transform="translate(1022.802734 0)"/>
      <use xlink:href="#DejaVuSans-2e" transform="translate(1086.425781 0)"/>
      <use xlink:href="#DejaVuSans-30" transform="translate(1118.212891 0)"/>
      <use xlink:href="#DejaVuSans-31" transform="translate(1181.835938 0)"/>
     </g>
    </g>
    <g id="line2d_56">
     <path d="M 485.408915 157.011094 
L 490.408915 157.011094 
L 495.408915 157.011094 
" style="fill: none; stroke: #7f7f7f; stroke-width: 1.5; stroke-linecap: square"/>
    </g>
    <g id="text_31">
     <!-- TF | batch=512 | lr=0.1 -->
     <g transform="translate(499.408915 158.761094) scale(0.05 -0.05)">
      <use xlink:href="#DejaVuSans-54"/>
      <use xlink:href="#DejaVuSans-46" transform="translate(61.083984 0)"/>
      <use xlink:href="#DejaVuSans-20" transform="translate(118.603516 0)"/>
      <use xlink:href="#DejaVuSans-7c" transform="translate(150.390625 0)"/>
      <use xlink:href="#DejaVuSans-20" transform="translate(184.082031 0)"/>
      <use xlink:href="#DejaVuSans-62" transform="translate(215.869141 0)"/>
      <use xlink:href="#DejaVuSans-61" transform="translate(279.345703 0)"/>
      <use xlink:href="#DejaVuSans-74" transform="translate(340.625 0)"/>
      <use xlink:href="#DejaVuSans-63" transform="translate(379.833984 0)"/>
      <use xlink:href="#DejaVuSans-68" transform="translate(434.814453 0)"/>
      <use xlink:href="#DejaVuSans-3d" transform="translate(498.193359 0)"/>
      <use xlink:href="#DejaVuSans-35" transform="translate(581.982422 0)"/>
      <use xlink:href="#DejaVuSans-31" transform="translate(645.605469 0)"/>
      <use xlink:href="#DejaVuSans-32" transform="translate(709.228516 0)"/>
      <use xlink:href="#DejaVuSans-20" transform="translate(772.851562 0)"/>
      <use xlink:href="#DejaVuSans-7c" transform="translate(804.638672 0)"/>
      <use xlink:href="#DejaVuSans-20" transform="translate(838.330078 0)"/>
      <use xlink:href="#DejaVuSans-6c" transform="translate(870.117188 0)"/>
      <use xlink:href="#DejaVuSans-72" transform="translate(897.900391 0)"/>
      <use xlink:href="#DejaVuSans-3d" transform="translate(939.013672 0)"/>
      <use xlink:href="#DejaVuSans-30" transform="translate(1022.802734 0)"/>
      <use xlink:href="#DejaVuSans-2e" transform="translate(1086.425781 0)"/>
      <use xlink:href="#DejaVuSans-31" transform="translate(1118.212891 0)"/>
     </g>
    </g>
   </g>
  </g>
 </g>
 <defs>
  <clipPath id="p1c1403cae7">
   <rect x="47.81" y="25.44" width="427.05776" height="292.6"/>
  </clipPath>
 </defs>
</svg>
